<svg width="200" height="50" viewBox="0 0 200 50" xmlns="http://www.w3.org/2000/svg">
  <!-- Main Campistry Logo -->
  <defs>
    <linearGradient id="campGradient" x1="0%" y1="0%" x2="100%" y2="100%">
      <stop offset="0%" style="stop-color:#0D7C5C;stop-opacity:1" />
      <stop offset="100%" style="stop-color:#10B981;stop-opacity:1" />
    </linearGradient>
  </defs>
  
  <!-- C -->
  <path d="M 8 35 Q 8 15, 20 15 Q 28 15, 28 20 L 24 22 Q 24 19, 20 19 Q 14 19, 14 25 L 14 35 Q 14 41, 20 41 Q 24 41, 24 38 L 28 40 Q 28 45, 20 45 Q 8 45, 8 35 Z" fill="url(#campGradient)"/>
  
  <!-- A with tent shape -->
  <g>
    <path d="M 38 45 L 34 45 L 44 15 L 48 15 L 58 45 L 54 45 L 52 38 L 40 38 Z M 41 34 L 51 34 L 46 20 Z" fill="url(#campGradient)"/>
    <!-- Tent pole detail -->
    <line x1="46" y1="20" x2="46" y2="34" stroke="#065F46" stroke-width="1" opacity="0.3"/>
  </g>
  
  <!-- m -->
  <path d="M 65 45 L 65 25 L 69 25 L 69 27 Q 71 25, 75 25 Q 79 25, 80 28 Q 82 25, 86 25 Q 92 25, 92 31 L 92 45 L 88 45 L 88 32 Q 88 29, 85 29 Q 82 29, 81 32 L 81 45 L 77 45 L 77 32 Q 77 29, 74 29 Q 71 29, 70 32 L 70 45 Z" fill="url(#campGradient)"/>
  
  <!-- p -->
  <path d="M 98 45 L 98 25 L 102 25 L 102 27 Q 104 25, 108 25 Q 116 25, 116 35 Q 116 45, 108 45 Q 104 45, 102 43 L 102 52 L 98 52 Z M 102 35 Q 102 41, 107 41 Q 112 41, 112 35 Q 112 29, 107 29 Q 102 29, 102 35 Z" fill="url(#campGradient)"/>
  
  <!-- i -->
  <rect x="122" y="25" width="4" height="20" fill="url(#campGradient)"/>
  <circle cx="124" cy="20" r="2.5" fill="url(#campGradient)"/>
  
  <!-- s -->
  <path d="M 133 28 Q 133 25, 138 25 Q 143 25, 143 28 Q 143 31, 138 32 L 135 33 Q 130 34, 130 38 Q 130 45, 138 45 Q 146 45, 146 40 L 142 39 Q 142 41, 138 41 Q 135 41, 135 39 Q 135 37, 138 36 L 141 35 Q 147 34, 147 29 Q 147 25, 138 25 Q 129 25, 129 30 Z" fill="url(#campGradient)"/>
  
  <!-- t -->
  <path d="M 153 45 Q 149 45, 149 41 L 149 29 L 146 29 L 146 25 L 149 25 L 149 18 L 153 18 L 153 25 L 158 25 L 158 29 L 153 29 L 153 40 Q 153 41, 155 41 L 158 41 L 158 45 Z" fill="url(#campGradient)"/>
  
  <!-- r -->
  <path d="M 164 45 L 164 25 L 168 25 L 168 28 Q 170 25, 174 25 L 176 25 L 176 29 L 173 29 Q 169 29, 169 33 L 169 45 Z" fill="url(#campGradient)"/>
  
  <!-- y -->
  <path d="M 182 45 L 178 45 L 185 25 L 189 25 L 196 45 L 192 45 L 191 42 L 184 42 Z M 185 38 L 190 38 L 187.5 30 Z" fill="url(#campGradient)"/>
</svg>
